<svg xmlns:xlink="http://www.w3.org/1999/xlink" width="75ex" height="18.009ex" style="font-size: 15px; vertical-align: -15.505ex; max-width: 450;" viewBox="0 -1078.4 32291.5 7754" role="img" focusable="false" xmlns="http://www.w3.org/2000/svg">
<defs>
<path stroke-width="1" id="E1-MJMATHI-70" d="M23 287Q24 290 25 295T30 317T40 348T55 381T75 411T101 433T134 442Q209 442 230 378L240 387Q302 442 358 442Q423 442 460 395T497 281Q497 173 421 82T249 -10Q227 -10 210 -4Q199 1 187 11T168 28L161 36Q160 35 139 -51T118 -138Q118 -144 126 -145T163 -148H188Q194 -155 194 -157T191 -175Q188 -187 185 -190T172 -194Q170 -194 161 -194T127 -193T65 -192Q-5 -192 -24 -194H-32Q-39 -187 -39 -183Q-37 -156 -26 -148H-6Q28 -147 33 -136Q36 -130 94 103T155 350Q156 355 156 364Q156 405 131 405Q109 405 94 377T71 316T59 280Q57 278 43 278H29Q23 284 23 287ZM178 102Q200 26 252 26Q282 26 310 49T356 107Q374 141 392 215T411 325V331Q411 405 350 405Q339 405 328 402T306 393T286 380T269 365T254 350T243 336T235 326L232 322Q232 321 229 308T218 264T204 212Q178 106 178 102Z"></path>
<path stroke-width="1" id="E1-MJMAIN-28" d="M94 250Q94 319 104 381T127 488T164 576T202 643T244 695T277 729T302 750H315H319Q333 750 333 741Q333 738 316 720T275 667T226 581T184 443T167 250T184 58T225 -81T274 -167T316 -220T333 -241Q333 -250 318 -250H315H302L274 -226Q180 -141 137 -14T94 250Z"></path>
<path stroke-width="1" id="E1-MJMATHI-52" d="M230 637Q203 637 198 638T193 649Q193 676 204 682Q206 683 378 683Q550 682 564 680Q620 672 658 652T712 606T733 563T739 529Q739 484 710 445T643 385T576 351T538 338L545 333Q612 295 612 223Q612 212 607 162T602 80V71Q602 53 603 43T614 25T640 16Q668 16 686 38T712 85Q717 99 720 102T735 105Q755 105 755 93Q755 75 731 36Q693 -21 641 -21H632Q571 -21 531 4T487 82Q487 109 502 166T517 239Q517 290 474 313Q459 320 449 321T378 323H309L277 193Q244 61 244 59Q244 55 245 54T252 50T269 48T302 46H333Q339 38 339 37T336 19Q332 6 326 0H311Q275 2 180 2Q146 2 117 2T71 2T50 1Q33 1 33 10Q33 12 36 24Q41 43 46 45Q50 46 61 46H67Q94 46 127 49Q141 52 146 61Q149 65 218 339T287 628Q287 635 230 637ZM630 554Q630 586 609 608T523 636Q521 636 500 636T462 637H440Q393 637 386 627Q385 624 352 494T319 361Q319 360 388 360Q466 361 492 367Q556 377 592 426Q608 449 619 486T630 554Z"></path>
<path stroke-width="1" id="E1-MJMATHI-74" d="M26 385Q19 392 19 395Q19 399 22 411T27 425Q29 430 36 430T87 431H140L159 511Q162 522 166 540T173 566T179 586T187 603T197 615T211 624T229 626Q247 625 254 615T261 596Q261 589 252 549T232 470L222 433Q222 431 272 431H323Q330 424 330 420Q330 398 317 385H210L174 240Q135 80 135 68Q135 26 162 26Q197 26 230 60T283 144Q285 150 288 151T303 153H307Q322 153 322 145Q322 142 319 133Q314 117 301 95T267 48T216 6T155 -11Q125 -11 98 4T59 56Q57 64 57 83V101L92 241Q127 382 128 383Q128 385 77 385H26Z"></path>
<path stroke-width="1" id="E1-MJMAIN-3D" d="M56 347Q56 360 70 367H707Q722 359 722 347Q722 336 708 328L390 327H72Q56 332 56 347ZM56 153Q56 168 72 173H708Q722 163 722 153Q722 140 707 133H70Q56 140 56 153Z"></path>
<path stroke-width="1" id="E1-MJMATHI-77" d="M580 385Q580 406 599 424T641 443Q659 443 674 425T690 368Q690 339 671 253Q656 197 644 161T609 80T554 12T482 -11Q438 -11 404 5T355 48Q354 47 352 44Q311 -11 252 -11Q226 -11 202 -5T155 14T118 53T104 116Q104 170 138 262T173 379Q173 380 173 381Q173 390 173 393T169 400T158 404H154Q131 404 112 385T82 344T65 302T57 280Q55 278 41 278H27Q21 284 21 287Q21 293 29 315T52 366T96 418T161 441Q204 441 227 416T250 358Q250 340 217 250T184 111Q184 65 205 46T258 26Q301 26 334 87L339 96V119Q339 122 339 128T340 136T341 143T342 152T345 165T348 182T354 206T362 238T373 281Q402 395 406 404Q419 431 449 431Q468 431 475 421T483 402Q483 389 454 274T422 142Q420 131 420 107V100Q420 85 423 71T442 42T487 26Q558 26 600 148Q609 171 620 213T632 273Q632 306 619 325T593 357T580 385Z"></path>
<path stroke-width="1" id="E1-MJMAIN-2223" d="M139 -249H137Q125 -249 119 -235V251L120 737Q130 750 139 750Q152 750 159 735V-235Q151 -249 141 -249H139Z"></path>
<path stroke-width="1" id="E1-MJMATHI-48" d="M228 637Q194 637 192 641Q191 643 191 649Q191 673 202 682Q204 683 219 683Q260 681 355 681Q389 681 418 681T463 682T483 682Q499 682 499 672Q499 670 497 658Q492 641 487 638H485Q483 638 480 638T473 638T464 637T455 637Q416 636 405 634T387 623Q384 619 355 500Q348 474 340 442T328 395L324 380Q324 378 469 378H614L615 381Q615 384 646 504Q674 619 674 627T617 637Q594 637 587 639T580 648Q580 650 582 660Q586 677 588 679T604 682Q609 682 646 681T740 680Q802 680 835 681T871 682Q888 682 888 672Q888 645 876 638H874Q872 638 869 638T862 638T853 637T844 637Q805 636 794 634T776 623Q773 618 704 340T634 58Q634 51 638 51Q646 48 692 46H723Q729 38 729 37T726 19Q722 6 716 0H701Q664 2 567 2Q533 2 504 2T458 2T437 1Q420 1 420 10Q420 15 423 24Q428 43 433 45Q437 46 448 46H454Q481 46 514 49Q520 50 522 50T528 55T534 64T540 82T547 110T558 153Q565 181 569 198Q602 330 602 331T457 332H312L279 197Q245 63 245 58Q245 51 253 49T303 46H334Q340 38 340 37T337 19Q333 6 327 0H312Q275 2 178 2Q144 2 115 2T69 2T48 1Q31 1 31 10Q31 12 34 24Q39 43 44 45Q48 46 59 46H65Q92 46 125 49Q139 52 144 61Q147 65 216 339T285 628Q285 635 228 637Z"></path>
<path stroke-width="1" id="E1-MJMAIN-2C" d="M78 35T78 60T94 103T137 121Q165 121 187 96T210 8Q210 -27 201 -60T180 -117T154 -158T130 -185T117 -194Q113 -194 104 -185T95 -172Q95 -168 106 -156T131 -126T157 -76T173 -3V9L172 8Q170 7 167 6T161 3T152 1T140 0Q113 0 96 17Z"></path>
<path stroke-width="1" id="E1-MJMATHI-55" d="M107 637Q73 637 71 641Q70 643 70 649Q70 673 81 682Q83 683 98 683Q139 681 234 681Q268 681 297 681T342 682T362 682Q378 682 378 672Q378 670 376 658Q371 641 366 638H364Q362 638 359 638T352 638T343 637T334 637Q295 636 284 634T266 623Q265 621 238 518T184 302T154 169Q152 155 152 140Q152 86 183 55T269 24Q336 24 403 69T501 205L552 406Q599 598 599 606Q599 633 535 637Q511 637 511 648Q511 650 513 660Q517 676 519 679T529 683Q532 683 561 682T645 680Q696 680 723 681T752 682Q767 682 767 672Q767 650 759 642Q756 637 737 637Q666 633 648 597Q646 592 598 404Q557 235 548 205Q515 105 433 42T263 -22Q171 -22 116 34T60 167V183Q60 201 115 421Q164 622 164 628Q164 635 107 637Z"></path>
<path stroke-width="1" id="E1-MJMATHI-6E" d="M21 287Q22 293 24 303T36 341T56 388T89 425T135 442Q171 442 195 424T225 390T231 369Q231 367 232 367L243 378Q304 442 382 442Q436 442 469 415T503 336T465 179T427 52Q427 26 444 26Q450 26 453 27Q482 32 505 65T540 145Q542 153 560 153Q580 153 580 145Q580 144 576 130Q568 101 554 73T508 17T439 -10Q392 -10 371 17T350 73Q350 92 386 193T423 345Q423 404 379 404H374Q288 404 229 303L222 291L189 157Q156 26 151 16Q138 -11 108 -11Q95 -11 87 -5T76 7T74 17Q74 30 112 180T152 343Q153 348 153 366Q153 405 129 405Q91 405 66 305Q60 285 60 284Q58 278 41 278H27Q21 284 21 287Z"></path>
<path stroke-width="1" id="E1-MJMAIN-3C" d="M694 -11T694 -19T688 -33T678 -40Q671 -40 524 29T234 166L90 235Q83 240 83 250Q83 261 91 266Q664 540 678 540Q681 540 687 534T694 519T687 505Q686 504 417 376L151 250L417 124Q686 -4 687 -5Q694 -11 694 -19Z"></path>
<path stroke-width="1" id="E1-MJMAIN-29" d="M60 749L64 750Q69 750 74 750H86L114 726Q208 641 251 514T294 250Q294 182 284 119T261 12T224 -76T186 -143T145 -194T113 -227T90 -246Q87 -249 86 -250H74Q66 -250 63 -250T58 -247T55 -238Q56 -237 66 -225Q221 -64 221 250T66 725Q56 737 55 738Q55 746 60 749Z"></path>
<path stroke-width="1" id="E1-MJMATHI-3BB" d="M166 673Q166 685 183 694H202Q292 691 316 644Q322 629 373 486T474 207T524 67Q531 47 537 34T546 15T551 6T555 2T556 -2T550 -11H482Q457 3 450 18T399 152L354 277L340 262Q327 246 293 207T236 141Q211 112 174 69Q123 9 111 -1T83 -12Q47 -12 47 20Q47 37 61 52T199 187Q229 216 266 252T321 306L338 322Q338 323 288 462T234 612Q214 657 183 657Q166 657 166 673Z"></path>
<path stroke-width="1" id="E1-MJSZ2-2211" d="M60 948Q63 950 665 950H1267L1325 815Q1384 677 1388 669H1348L1341 683Q1320 724 1285 761Q1235 809 1174 838T1033 881T882 898T699 902H574H543H251L259 891Q722 258 724 252Q725 250 724 246Q721 243 460 -56L196 -356Q196 -357 407 -357Q459 -357 548 -357T676 -358Q812 -358 896 -353T1063 -332T1204 -283T1307 -196Q1328 -170 1348 -124H1388Q1388 -125 1381 -145T1356 -210T1325 -294L1267 -449L666 -450Q64 -450 61 -448Q55 -446 55 -439Q55 -437 57 -433L590 177Q590 178 557 222T452 366T322 544L56 909L55 924Q55 945 60 948Z"></path>
<path stroke-width="1" id="E1-MJMATHI-69" d="M184 600Q184 624 203 642T247 661Q265 661 277 649T290 619Q290 596 270 577T226 557Q211 557 198 567T184 600ZM21 287Q21 295 30 318T54 369T98 420T158 442Q197 442 223 419T250 357Q250 340 236 301T196 196T154 83Q149 61 149 51Q149 26 166 26Q175 26 185 29T208 43T235 78T260 137Q263 149 265 151T282 153Q302 153 302 143Q302 135 293 112T268 61T223 11T161 -11Q129 -11 102 10T74 74Q74 91 79 106T122 220Q160 321 166 341T173 380Q173 404 156 404H154Q124 404 99 371T61 287Q60 286 59 284T58 281T56 279T53 278T49 278T41 278H27Q21 284 21 287Z"></path>
<path stroke-width="1" id="E1-MJMAIN-3A" d="M78 370Q78 394 95 412T138 430Q162 430 180 414T199 371Q199 346 182 328T139 310T96 327T78 370ZM78 60Q78 84 95 102T138 120Q162 120 180 104T199 61Q199 36 182 18T139 0T96 17T78 60Z"></path>
<path stroke-width="1" id="E1-MJMAIN-2227" d="M318 591Q325 598 333 598Q344 598 348 591Q349 590 414 445T545 151T611 -4Q609 -22 591 -22Q588 -22 586 -21T581 -20T577 -17T575 -13T572 -9T570 -4L333 528L96 -4Q87 -20 80 -21Q78 -22 75 -22Q57 -22 55 -4Q55 2 120 150T251 444T318 591Z"></path>
<path stroke-width="1" id="E1-MJMAIN-2208" d="M84 250Q84 372 166 450T360 539Q361 539 377 539T419 540T469 540H568Q583 532 583 520Q583 511 570 501L466 500Q355 499 329 494Q280 482 242 458T183 409T147 354T129 306T124 272V270H568Q583 262 583 250T568 230H124V228Q124 207 134 177T167 112T231 48T328 7Q355 1 466 0H570Q583 -10 583 -20Q583 -32 568 -40H471Q464 -40 446 -40T417 -41Q262 -41 172 45Q84 127 84 250Z"></path>
<path stroke-width="1" id="E1-MJMAIN-48" d="M128 622Q121 629 117 631T101 634T58 637H25V683H36Q57 680 180 680Q315 680 324 683H335V637H302Q262 636 251 634T233 622L232 500V378H517V622Q510 629 506 631T490 634T447 637H414V683H425Q446 680 569 680Q704 680 713 683H724V637H691Q651 636 640 634T622 622V61Q628 51 639 49T691 46H724V0H713Q692 3 569 3Q434 3 425 0H414V46H447Q489 47 498 49T517 61V332H232V197L233 61Q239 51 250 49T302 46H335V0H324Q303 3 180 3Q45 3 36 0H25V46H58Q100 47 109 49T128 61V622Z"></path>
<path stroke-width="1" id="E1-MJMATHI-61" d="M33 157Q33 258 109 349T280 441Q331 441 370 392Q386 422 416 422Q429 422 439 414T449 394Q449 381 412 234T374 68Q374 43 381 35T402 26Q411 27 422 35Q443 55 463 131Q469 151 473 152Q475 153 483 153H487Q506 153 506 144Q506 138 501 117T481 63T449 13Q436 0 417 -8Q409 -10 393 -10Q359 -10 336 5T306 36L300 51Q299 52 296 50Q294 48 292 46Q233 -10 172 -10Q117 -10 75 30T33 157ZM351 328Q351 334 346 350T323 385T277 405Q242 405 210 374T160 293Q131 214 119 129Q119 126 119 118T118 106Q118 61 136 44T179 26Q217 26 254 59T298 110Q300 114 325 217T351 328Z"></path>
<path stroke-width="1" id="E1-MJMAIN-2B" d="M56 237T56 250T70 270H369V420L370 570Q380 583 389 583Q402 583 409 568V270H707Q722 262 722 250T707 230H409V-68Q401 -82 391 -82H389H387Q375 -82 369 -68V230H70Q56 237 56 250Z"></path>
<path stroke-width="1" id="E1-MJMAIN-31" d="M213 578L200 573Q186 568 160 563T102 556H83V602H102Q149 604 189 617T245 641T273 663Q275 666 285 666Q294 666 302 660V361L303 61Q310 54 315 52T339 48T401 46H427V0H416Q395 3 257 3Q121 3 100 0H88V46H114Q136 46 152 46T177 47T193 50T201 52T207 57T213 61V578Z"></path>
<path stroke-width="1" id="E1-MJMAIN-2212" d="M84 237T84 250T98 270H679Q694 262 694 250T679 230H98Q84 237 84 250Z"></path>
<path stroke-width="1" id="E1-MJMATHI-6A" d="M297 596Q297 627 318 644T361 661Q378 661 389 651T403 623Q403 595 384 576T340 557Q322 557 310 567T297 596ZM288 376Q288 405 262 405Q240 405 220 393T185 362T161 325T144 293L137 279Q135 278 121 278H107Q101 284 101 286T105 299Q126 348 164 391T252 441Q253 441 260 441T272 442Q296 441 316 432Q341 418 354 401T367 348V332L318 133Q267 -67 264 -75Q246 -125 194 -164T75 -204Q25 -204 7 -183T-12 -137Q-12 -110 7 -91T53 -71Q70 -71 82 -81T95 -112Q95 -148 63 -167Q69 -168 77 -168Q111 -168 139 -140T182 -74L193 -32Q204 11 219 72T251 197T278 308T289 365Q289 372 288 376Z"></path>
<path stroke-width="1" id="E1-MJSZ1-28" d="M152 251Q152 646 388 850H416Q422 844 422 841Q422 837 403 816T357 753T302 649T255 482T236 250Q236 124 255 19T301 -147T356 -251T403 -315T422 -340Q422 -343 416 -349H388Q359 -325 332 -296T271 -213T212 -97T170 56T152 251Z"></path>
<path stroke-width="1" id="E1-MJSZ1-29" d="M305 251Q305 -145 69 -349H56Q43 -349 39 -347T35 -338Q37 -333 60 -307T108 -239T160 -136T204 27T221 250T204 473T160 636T108 740T60 807T35 839Q35 850 50 850H56H69Q197 743 256 566Q305 425 305 251Z"></path>
<path stroke-width="1" id="E1-MJMAIN-2032" d="M79 43Q73 43 52 49T30 61Q30 68 85 293T146 528Q161 560 198 560Q218 560 240 545T262 501Q262 496 260 486Q259 479 173 263T84 45T79 43Z"></path>
<path stroke-width="1" id="E1-MJMAIN-41" d="M255 0Q240 3 140 3Q48 3 39 0H32V46H47Q119 49 139 88Q140 91 192 245T295 553T348 708Q351 716 366 716H376Q396 715 400 709Q402 707 508 390L617 67Q624 54 636 51T687 46H717V0H708Q699 3 581 3Q458 3 437 0H427V46H440Q510 46 510 64Q510 66 486 138L462 209H229L209 150Q189 91 189 85Q189 72 209 59T259 46H264V0H255ZM447 255L345 557L244 256Q244 255 345 255H447Z"></path>
<path stroke-width="1" id="E1-MJMAIN-74" d="M27 422Q80 426 109 478T141 600V615H181V431H316V385H181V241Q182 116 182 100T189 68Q203 29 238 29Q282 29 292 100Q293 108 293 146V181H333V146V134Q333 57 291 17Q264 -10 221 -10Q187 -10 162 2T124 33T105 68T98 100Q97 107 97 248V385H18V422H27Z"></path>
<path stroke-width="1" id="E1-MJMAIN-65" d="M28 218Q28 273 48 318T98 391T163 433T229 448Q282 448 320 430T378 380T406 316T415 245Q415 238 408 231H126V216Q126 68 226 36Q246 30 270 30Q312 30 342 62Q359 79 369 104L379 128Q382 131 395 131H398Q415 131 415 121Q415 117 412 108Q393 53 349 21T250 -11Q155 -11 92 58T28 218ZM333 275Q322 403 238 411H236Q228 411 220 410T195 402T166 381T143 340T127 274V267H333V275Z"></path>
<path stroke-width="1" id="E1-MJMAIN-6E" d="M41 46H55Q94 46 102 60V68Q102 77 102 91T102 122T103 161T103 203Q103 234 103 269T102 328V351Q99 370 88 376T43 385H25V408Q25 431 27 431L37 432Q47 433 65 434T102 436Q119 437 138 438T167 441T178 442H181V402Q181 364 182 364T187 369T199 384T218 402T247 421T285 437Q305 442 336 442Q450 438 463 329Q464 322 464 190V104Q464 66 466 59T477 49Q498 46 526 46H542V0H534L510 1Q487 2 460 2T422 3Q319 3 310 0H302V46H318Q379 46 379 62Q380 64 380 200Q379 335 378 343Q372 371 358 385T334 402T308 404Q263 404 229 370Q202 343 195 315T187 232V168V108Q187 78 188 68T191 55T200 49Q221 46 249 46H265V0H257L234 1Q210 2 183 2T145 3Q42 3 33 0H25V46H41Z"></path>
<path stroke-width="1" id="E1-MJMAIN-69" d="M69 609Q69 637 87 653T131 669Q154 667 171 652T188 609Q188 579 171 564T129 549Q104 549 87 564T69 609ZM247 0Q232 3 143 3Q132 3 106 3T56 1L34 0H26V46H42Q70 46 91 49Q100 53 102 60T104 102V205V293Q104 345 102 359T88 378Q74 385 41 385H30V408Q30 431 32 431L42 432Q52 433 70 434T106 436Q123 437 142 438T171 441T182 442H185V62Q190 52 197 50T232 46H255V0H247Z"></path>
<path stroke-width="1" id="E1-MJMAIN-6F" d="M28 214Q28 309 93 378T250 448Q340 448 405 380T471 215Q471 120 407 55T250 -10Q153 -10 91 57T28 214ZM250 30Q372 30 372 193V225V250Q372 272 371 288T364 326T348 362T317 390T268 410Q263 411 252 411Q222 411 195 399Q152 377 139 338T126 246V226Q126 130 145 91Q177 30 250 30Z"></path>
<path stroke-width="1" id="E1-MJMAINB-4D" d="M314 0Q296 3 181 3T48 0H39V62H147V624H39V686H305Q316 679 323 667Q330 653 434 414L546 157L658 414Q766 662 773 674Q778 681 788 686H1052V624H944V62H1052V0H1040Q1016 3 874 3T708 0H696V62H804V341L803 618L786 580Q770 543 735 462T671 315Q540 13 536 9Q528 1 507 1Q485 1 477 9Q472 14 408 162T281 457T217 603Q215 603 215 334V62H323V0H314Z"></path>
<path stroke-width="1" id="E1-MJMATHI-4C" d="M228 637Q194 637 192 641Q191 643 191 649Q191 673 202 682Q204 683 217 683Q271 680 344 680Q485 680 506 683H518Q524 677 524 674T522 656Q517 641 513 637H475Q406 636 394 628Q387 624 380 600T313 336Q297 271 279 198T252 88L243 52Q243 48 252 48T311 46H328Q360 46 379 47T428 54T478 72T522 106T564 161Q580 191 594 228T611 270Q616 273 628 273H641Q647 264 647 262T627 203T583 83T557 9Q555 4 553 3T537 0T494 -1Q483 -1 418 -1T294 0H116Q32 0 32 10Q32 17 34 24Q39 43 44 45Q48 46 59 46H65Q92 46 125 49Q139 52 144 61Q147 65 216 339T285 628Q285 635 228 637Z"></path>
<path stroke-width="1" id="E1-MJMAINB-45" d="M723 286Q721 284 700 145T677 3V0H39V62H147V618H39V680H660V676Q662 670 675 552T691 428V424H629V428Q629 429 627 448T618 494T601 541Q574 593 527 605T382 618H374H304V384H336Q338 384 347 384T361 384T376 386T392 390T407 397T421 407T432 423Q442 444 443 482V501H505V205H443V224Q442 258 435 278T411 307T380 318T336 322H304V62H375H394Q429 62 449 62T497 66T541 76T577 95T609 126T632 170T651 232Q661 287 661 289H723V286Z"></path>
<path stroke-width="1" id="E1-MJSZ2-28" d="M180 96T180 250T205 541T266 770T353 944T444 1069T527 1150H555Q561 1144 561 1141Q561 1137 545 1120T504 1072T447 995T386 878T330 721T288 513T272 251Q272 133 280 56Q293 -87 326 -209T399 -405T475 -531T536 -609T561 -640Q561 -643 555 -649H527Q483 -612 443 -568T353 -443T266 -270T205 -41Z"></path>
<path stroke-width="1" id="E1-MJSZ2-29" d="M35 1138Q35 1150 51 1150H56H69Q113 1113 153 1069T243 944T330 771T391 541T416 250T391 -40T330 -270T243 -443T152 -568T69 -649H56Q43 -649 39 -647T35 -637Q65 -607 110 -548Q283 -316 316 56Q324 133 324 251Q324 368 316 445Q278 877 48 1123Q36 1137 35 1138Z"></path>
</defs>
<g stroke="currentColor" fill="currentColor" stroke-width="0" transform="matrix(1 0 0 -1 0 0)">
<g transform="translate(328,0)">
 <use xlink:href="#E1-MJMATHI-70" x="0" y="0"></use>
<g transform="translate(670,0)">
 <use xlink:href="#E1-MJMAIN-28" x="0" y="0"></use>
<g transform="translate(389,0)">
 <use xlink:href="#E1-MJMATHI-52" x="0" y="0"></use>
 <use transform="scale(0.707)" xlink:href="#E1-MJMATHI-74" x="1074" y="-213"></use>
 <use xlink:href="#E1-MJMAIN-3D" x="1392" y="0"></use>
 <use xlink:href="#E1-MJMATHI-77" x="2449" y="0"></use>
 <use xlink:href="#E1-MJMAIN-2223" x="3443" y="0"></use>
 <use xlink:href="#E1-MJMATHI-48" x="3999" y="0"></use>
 <use xlink:href="#E1-MJMAIN-2C" x="4888" y="0"></use>
<g transform="translate(5333,0)">
 <use xlink:href="#E1-MJMATHI-55" x="0" y="0"></use>
 <use transform="scale(0.707)" xlink:href="#E1-MJMATHI-6E" x="966" y="-213"></use>
</g>
 <use xlink:href="#E1-MJMAIN-2C" x="6541" y="0"></use>
<g transform="translate(6986,0)">
 <use xlink:href="#E1-MJMATHI-52" x="0" y="0"></use>
<g transform="translate(759,-150)">
 <use transform="scale(0.707)" xlink:href="#E1-MJMAIN-3C" x="0" y="0"></use>
 <use transform="scale(0.707)" xlink:href="#E1-MJMATHI-74" x="778" y="0"></use>
</g>
</g>
</g>
 <use xlink:href="#E1-MJMAIN-29" x="9041" y="0"></use>
</g>
 <use xlink:href="#E1-MJMAIN-3D" x="10379" y="0"></use>
 <use xlink:href="#E1-MJMATHI-3BB" x="11435" y="0"></use>
<g transform="translate(12185,0)">
 <use xlink:href="#E1-MJSZ2-2211" x="2090" y="0"></use>
<g transform="translate(0,-1149)">
 <use transform="scale(0.707)" xlink:href="#E1-MJMATHI-69" x="0" y="0"></use>
 <use transform="scale(0.707)" xlink:href="#E1-MJMAIN-3A" x="345" y="0"></use>
<g transform="translate(441,0)">
 <use transform="scale(0.707)" xlink:href="#E1-MJMAIN-28" x="0" y="0"></use>
<g transform="translate(275,0)">
 <use transform="scale(0.707)" xlink:href="#E1-MJMATHI-77" x="0" y="0"></use>
 <use transform="scale(0.574)" xlink:href="#E1-MJMATHI-69" x="882" y="-238"></use>
 <use transform="scale(0.707)" xlink:href="#E1-MJMAIN-3D" x="1096" y="0"></use>
 <use transform="scale(0.707)" xlink:href="#E1-MJMATHI-77" x="1875" y="0"></use>
</g>
 <use transform="scale(0.707)" xlink:href="#E1-MJMAIN-29" x="2981" y="0"></use>
</g>
 <use transform="scale(0.707)" xlink:href="#E1-MJMAIN-2227" x="3994" y="0"></use>
<g transform="translate(3296,0)">
 <use transform="scale(0.707)" xlink:href="#E1-MJMAIN-28" x="0" y="0"></use>
<g transform="translate(275,0)">
 <use transform="scale(0.707)" xlink:href="#E1-MJMATHI-77" x="0" y="0"></use>
 <use transform="scale(0.574)" xlink:href="#E1-MJMATHI-69" x="882" y="-238"></use>
 <use transform="scale(0.707)" xlink:href="#E1-MJMAIN-2208" x="1096" y="0"></use>
 <use transform="scale(0.707)" xlink:href="#E1-MJMAIN-48" x="1764" y="0"></use>
</g>
 <use transform="scale(0.707)" xlink:href="#E1-MJMAIN-29" x="2904" y="0"></use>
</g>
</g>
</g>
<g transform="translate(17978,0)">
 <use xlink:href="#E1-MJMATHI-61" x="0" y="0"></use>
<g transform="translate(529,-150)">
 <use transform="scale(0.707)" xlink:href="#E1-MJMATHI-74" x="0" y="0"></use>
 <use transform="scale(0.707)" xlink:href="#E1-MJMAIN-2C" x="361" y="0"></use>
 <use transform="scale(0.707)" xlink:href="#E1-MJMATHI-69" x="640" y="0"></use>
</g>
</g>
 <use xlink:href="#E1-MJMAIN-2B" x="19527" y="0"></use>
 <use xlink:href="#E1-MJMAIN-28" x="20527" y="0"></use>
 <use xlink:href="#E1-MJMAIN-31" x="20917" y="0"></use>
 <use xlink:href="#E1-MJMAIN-2212" x="21639" y="0"></use>
 <use xlink:href="#E1-MJMATHI-3BB" x="22640" y="0"></use>
 <use xlink:href="#E1-MJMAIN-29" x="23224" y="0"></use>
<g transform="translate(23780,0)">
 <use xlink:href="#E1-MJSZ2-2211" x="2434" y="0"></use>
<g transform="translate(0,-1220)">
 <use transform="scale(0.707)" xlink:href="#E1-MJMATHI-6A" x="0" y="0"></use>
 <use transform="scale(0.707)" xlink:href="#E1-MJMAIN-3A" x="412" y="0"></use>
<g transform="translate(488,0)">
 <use transform="scale(0.707)" xlink:href="#E1-MJSZ1-28"></use>
<g transform="translate(324,0)">
 <use transform="scale(0.707)" xlink:href="#E1-MJMATHI-77" x="0" y="0"></use>
 <use transform="scale(0.574)" xlink:href="#E1-MJMATHI-6A" x="882" y="-238"></use>
 <use transform="scale(0.707)" xlink:href="#E1-MJMAIN-3D" x="1151" y="0"></use>
 <use transform="scale(0.707)" xlink:href="#E1-MJMATHI-77" x="1929" y="0"></use>
</g>
 <use transform="scale(0.707)" xlink:href="#E1-MJSZ1-29" x="3104" y="-1"></use>
</g>
 <use transform="scale(0.707)" xlink:href="#E1-MJMAIN-2227" x="4254" y="0"></use>
<g transform="translate(3480,0)">
 <use transform="scale(0.707)" xlink:href="#E1-MJSZ1-28"></use>
<g transform="translate(324,0)">
 <use transform="scale(0.707)" xlink:href="#E1-MJMATHI-77" x="0" y="0"></use>
 <use transform="scale(0.574)" xlink:href="#E1-MJMATHI-6A" x="882" y="-238"></use>
 <use transform="scale(0.707)" xlink:href="#E1-MJMAIN-2208" x="1151" y="0"></use>
<g transform="translate(1286,0)">
 <use transform="scale(0.707)" xlink:href="#E1-MJMATHI-55" x="0" y="0"></use>
 <use transform="scale(0.574)" xlink:href="#E1-MJMATHI-6E" x="841" y="-185"></use>
</g>
</g>
 <use transform="scale(0.707)" xlink:href="#E1-MJSZ1-29" x="3548" y="-1"></use>
</g>
</g>
</g>
<g transform="translate(30260,0)">
 <use xlink:href="#E1-MJMATHI-61" x="0" y="0"></use>
 <use transform="scale(0.707)" xlink:href="#E1-MJMAIN-2032" x="748" y="445"></use>
<g transform="translate(529,-304)">
 <use transform="scale(0.707)" xlink:href="#E1-MJMATHI-74" x="0" y="0"></use>
 <use transform="scale(0.707)" xlink:href="#E1-MJMAIN-2C" x="361" y="0"></use>
 <use transform="scale(0.707)" xlink:href="#E1-MJMATHI-6A" x="640" y="0"></use>
</g>
</g>
</g>
<g transform="translate(9524,-3155)">
 <use xlink:href="#E1-MJMATHI-61" x="0" y="0"></use>
 <use xlink:href="#E1-MJMAIN-3D" x="807" y="0"></use>
<g transform="translate(1863,0)">
 <use xlink:href="#E1-MJMAIN-41"></use>
 <use xlink:href="#E1-MJMAIN-74" x="750" y="0"></use>
 <use xlink:href="#E1-MJMAIN-74" x="1140" y="0"></use>
 <use xlink:href="#E1-MJMAIN-65" x="1529" y="0"></use>
 <use xlink:href="#E1-MJMAIN-6E" x="1974" y="0"></use>
 <use xlink:href="#E1-MJMAIN-74" x="2530" y="0"></use>
 <use xlink:href="#E1-MJMAIN-69" x="2920" y="0"></use>
 <use xlink:href="#E1-MJMAIN-6F" x="3198" y="0"></use>
 <use xlink:href="#E1-MJMAIN-6E" x="3699" y="0"></use>
</g>
<g transform="translate(6119,0)">
 <use xlink:href="#E1-MJSZ2-28"></use>
<g transform="translate(597,0)">
 <use xlink:href="#E1-MJMAINB-4D" x="0" y="0"></use>
<g transform="translate(1092,413)">
 <use transform="scale(0.707)" xlink:href="#E1-MJMAIN-28" x="0" y="0"></use>
 <use transform="scale(0.707)" xlink:href="#E1-MJMATHI-4C" x="389" y="0"></use>
 <use transform="scale(0.707)" xlink:href="#E1-MJMAIN-29" x="1071" y="0"></use>
</g>
 <use xlink:href="#E1-MJMAIN-2C" x="2225" y="0"></use>
 <use xlink:href="#E1-MJMAINB-45" x="2670" y="0"></use>
<g transform="translate(3426,0)">
 <use xlink:href="#E1-MJMATHI-55" x="0" y="0"></use>
 <use xlink:href="#E1-MJMATHI-6E" x="767" y="0"></use>
<g transform="translate(1368,412)">
 <use transform="scale(0.707)" xlink:href="#E1-MJMAIN-28" x="0" y="0"></use>
 <use transform="scale(0.707)" xlink:href="#E1-MJMATHI-4C" x="389" y="0"></use>
 <use transform="scale(0.707)" xlink:href="#E1-MJMAIN-29" x="1071" y="0"></use>
</g>
</g>
</g>
 <use xlink:href="#E1-MJSZ2-29" x="6525" y="-1"></use>
</g>
</g>
<g transform="translate(10061,-5386)">
 <use xlink:href="#E1-MJMATHI-61" x="0" y="0"></use>
 <use transform="scale(0.707)" xlink:href="#E1-MJMAIN-2032" x="748" y="583"></use>
 <use xlink:href="#E1-MJMAIN-3D" x="1102" y="0"></use>
<g transform="translate(2158,0)">
 <use xlink:href="#E1-MJMAIN-41"></use>
 <use xlink:href="#E1-MJMAIN-74" x="750" y="0"></use>
 <use xlink:href="#E1-MJMAIN-74" x="1140" y="0"></use>
 <use xlink:href="#E1-MJMAIN-65" x="1529" y="0"></use>
 <use xlink:href="#E1-MJMAIN-6E" x="1974" y="0"></use>
 <use xlink:href="#E1-MJMAIN-74" x="2530" y="0"></use>
 <use xlink:href="#E1-MJMAIN-69" x="2920" y="0"></use>
 <use xlink:href="#E1-MJMAIN-6F" x="3198" y="0"></use>
 <use xlink:href="#E1-MJMAIN-6E" x="3699" y="0"></use>
</g>
<g transform="translate(6413,0)">
 <use xlink:href="#E1-MJSZ2-28"></use>
<g transform="translate(597,0)">
 <use xlink:href="#E1-MJMAINB-4D" x="0" y="0"></use>
<g transform="translate(1092,413)">
 <use transform="scale(0.707)" xlink:href="#E1-MJMAIN-28" x="0" y="0"></use>
 <use transform="scale(0.707)" xlink:href="#E1-MJMATHI-4C" x="389" y="0"></use>
 <use transform="scale(0.707)" xlink:href="#E1-MJMAIN-29" x="1071" y="0"></use>
</g>
 <use xlink:href="#E1-MJMAIN-2C" x="2225" y="0"></use>
<g transform="translate(2670,0)">
 <use xlink:href="#E1-MJMAINB-45" x="0" y="0"></use>
<g transform="translate(756,521)">
 <use transform="scale(0.707)" xlink:href="#E1-MJMAIN-28" x="0" y="0"></use>
 <use transform="scale(0.707)" xlink:href="#E1-MJMATHI-4C" x="389" y="0"></use>
 <use transform="scale(0.707)" xlink:href="#E1-MJMAIN-29" x="1071" y="0"></use>
</g>
 <use transform="scale(0.707)" xlink:href="#E1-MJMATHI-48" x="1069" y="-452"></use>
</g>
</g>
 <use xlink:href="#E1-MJSZ2-29" x="5157" y="-1"></use>
</g>
</g>
</g>
</svg>